<svg xmlns="http://www.w3.org/2000/svg" version="1.1" xmlns:xlink="http://www.w3.org/1999/xlink" xmlns:svgjs="http://svgjs.dev/svgjs" width="1500" height="1500" viewBox="0 0 1500 1500"><rect width="1500" height="1500" fill="#000000"></rect><g transform="matrix(0.6666666666666666,0,0,0.6666666666666666,249.39393939393938,435.99032258064517)"><svg viewBox="0 0 396 248" data-background-color="#000000" preserveAspectRatio="xMidYMid meet" height="939" width="1500" xmlns="http://www.w3.org/2000/svg" xmlns:xlink="http://www.w3.org/1999/xlink"><g id="tight-bounds" transform="matrix(1,0,0,1,0.2400000000000091,0.4000000000000057)"><svg viewBox="0 0 395.52 247.2" height="247.2" width="395.52"><g><svg></svg></g><g><svg viewBox="0 0 395.52 247.2" height="247.2" width="395.52"><g transform="matrix(1,0,0,1,75.54432000000001,104.87876216181644)"><svg viewBox="0 0 244.43135999999996 37.44247567636712" height="37.44247567636712" width="244.43135999999996"><g><svg viewBox="0 0 244.43135999999996 37.44247567636712" height="37.44247567636712" width="244.43135999999996"><g><svg viewBox="0 0 244.43136 37.442475676367124" height="37.44247567636712" width="244.43135999999996"><g><svg viewBox="0 0 244.43136 37.442475676367124" height="37.442475676367124" width="244.43136"><g id="textblocktransform"><svg viewBox="0 0 244.43136 37.442475676367124" height="37.442475676367124" width="244.43136" id="textblock"><g><svg viewBox="0 0 244.43136 37.442475676367124" height="37.442475676367124" width="244.43136"><g transform="matrix(1,0,0,1,0,0)"><svg width="244.43136" viewBox="2.29 -34.47 229.02 35.08" height="37.442475676367124" data-palette-color="#fbfbf8"><path d="M25.56 0L2.29 0 2.29-2.37 20.39-30.44 3.96-30.44 3.96-33.84 25.39-33.84 25.39-31.47 7.3-3.39 25.56-3.39 25.56 0ZM52.32 0L32.44 0 32.44-33.84 51.8-33.84 51.8-30.44 36.45-30.44 36.45-19.53 49.39-19.53 49.39-16.06 36.45-16.06 36.45-3.39 52.32-3.39 52.32 0ZM63.3 0L59.49 0 59.49-33.84 63.67-33.84 76.19-12.16Q77.12-10.45 78.06-8.69 79-6.93 79.83-5.2L79.83-5.2 80.05-5.2Q79.88-7.74 79.71-10.46 79.54-13.18 79.54-15.82L79.54-15.82 79.54-33.84 83.34-33.84 83.34 0 79.22 0 66.65-21.63Q65.72-23.34 64.8-25.12 63.89-26.9 62.98-28.64L62.98-28.64 62.79-28.64Q62.93-26.1 63.12-23.45 63.3-20.8 63.3-18.19L63.3-18.19 63.3 0ZM103.78 0L99.77 0 99.77-30.44 89.47-30.44 89.47-33.84 114.1-33.84 114.1-30.44 103.78-30.44 103.78 0ZM124.23 0L120.23 0 120.23-33.84 130.68-33.84Q134.12-33.84 136.77-32.93 139.42-32.03 140.92-29.97 142.42-27.91 142.42-24.41L142.42-24.41Q142.42-21.07 140.92-18.86 139.42-16.65 136.77-15.56 134.12-14.48 130.68-14.48L130.68-14.48 124.23-14.48 124.23 0ZM124.23-30.54L124.23-17.72 130.07-17.72Q134.07-17.72 136.24-19.38 138.42-21.04 138.42-24.41L138.42-24.41Q138.42-27.83 136.24-29.19 134.07-30.54 130.07-30.54L130.07-30.54 124.23-30.54ZM143.35 0L138.83 0 129.85-15.6 133.1-17.6 143.35 0ZM160.8-33.84L172.35 0 168.08 0 164.76-10.5 152.26-10.5 148.91 0 144.79 0 156.34-33.84 160.8-33.84ZM154.99-19.07L154.99-19.07 153.28-13.7 163.76-13.7 162.05-19.07Q161.12-21.92 160.29-24.73 159.46-27.54 158.61-30.49L158.61-30.49 158.39-30.49Q157.63-27.54 156.77-24.73 155.92-21.92 154.99-19.07ZM189.88 0.61L189.88 0.61Q185.65 0.61 182.33-1.48 179.01-3.56 177.1-7.48 175.18-11.4 175.18-16.89L175.18-16.89Q175.18-22.34 177.12-26.27 179.06-30.2 182.44-32.34 185.82-34.47 190.12-34.47L190.12-34.47Q193.17-34.47 195.53-33.22 197.89-31.96 199.35-30.3L199.35-30.3 197.15-27.76Q195.83-29.2 194.1-30.05 192.37-30.91 190.19-30.91L190.19-30.91Q186.92-30.91 184.48-29.21 182.04-27.51 180.7-24.4 179.36-21.29 179.36-16.99L179.36-16.99Q179.36-12.67 180.66-9.51 181.97-6.35 184.36-4.64 186.75-2.93 190.02-2.93L190.02-2.93Q192.47-2.93 194.39-3.88 196.32-4.83 197.96-6.69L197.96-6.69 200.18-4.27Q198.18-1.9 195.65-0.65 193.12 0.61 189.88 0.61ZM210.58 0L206.57 0 206.57-33.84 210.58-33.84 210.58-16.58 210.75-16.58 225.13-33.84 229.65-33.84 219.03-20.97 231.31 0 226.81 0 216.56-17.87 210.58-10.82 210.58 0Z" opacity="1" transform="matrix(1,0,0,1,0,0)" fill="#ffffff" class="wordmark-text-0" data-fill-palette-color="primary" id="text-0"></path></svg></g></svg></g></svg></g></svg></g></svg></g></svg></g></svg></g><path d="M181.59 98.879L181.59 36.088 6.565 36.088 6.565 211.112 181.59 211.112 181.59 148.321 178.214 148.321 178.214 207.736 9.942 207.736 9.942 39.464 178.214 39.464 178.214 98.879Z" fill="#ffffff" stroke="transparent" data-fill-palette-color="tertiary"></path></svg></g><defs></defs></svg><rect width="395.52" height="247.2" fill="none" stroke="none" visibility="hidden"></rect></g></svg></g></svg>